<svg xmlns="http://www.w3.org/2000/svg" xmlns:xlink="http://www.w3.org/1999/xlink" x="0" y="0" width="662.86669921875" height="224.8666534423828" style="
        width:662.86669921875px;
        height:224.8666534423828px;
        background: #FFF;
        fill: none;
">
        
        
        <svg xmlns="http://www.w3.org/2000/svg" class="role-diagram-draw-area"><g class="shapes-region" style="stroke: black; fill: none;"><g class="arrow-line"><path class="connection real" stroke-dasharray="" d="  M170,140 L280,170" style="stroke: rgb(0, 0, 0); stroke-width: 1px; fill: none; fill-opacity: 1;"/></g><g class="arrow-line"><path class="connection real" stroke-dasharray="6 6" d="  M170,140 L170,170" style="stroke: rgb(208, 2, 27); stroke-opacity: 1; stroke-width: 1px; fill: none; fill-opacity: 1;"/></g><g class="arrow-line"><path class="connection real" stroke-dasharray="1.125 3.35" d="  M40,70 L610,70" style="stroke: rgb(65, 117, 5); stroke-opacity: 1; stroke-width: 1px; fill: none; fill-opacity: 1;"/></g><g class="arrow-line"><path class="connection real" stroke-dasharray="1.125 3.35" d="  M50,170 L620,170" style="stroke: rgb(65, 117, 5); stroke-opacity: 1; stroke-width: 1px; fill: none; fill-opacity: 1;"/></g><g class="arrow-line"><path class="connection real" stroke-dasharray="" d="  M280,140 L390,170" style="stroke: rgb(0, 0, 0); stroke-width: 1px; fill: none; fill-opacity: 1;"/></g><g class="arrow-line"><path class="connection real" stroke-dasharray="" d="  M390,140 L500,170" style="stroke: rgb(0, 0, 0); stroke-width: 1px; fill: none; fill-opacity: 1;"/></g><g class="arrow-line"><path class="connection real" stroke-dasharray="" d="  M60,140 L170,170" style="stroke: rgb(0, 0, 0); stroke-width: 1px; fill: none; fill-opacity: 1;"/></g><g class="arrow-line"><path class="connection real" stroke-dasharray="6 6" d="  M60,140 L60,170" style="stroke: rgb(208, 2, 27); stroke-opacity: 1; stroke-width: 1px; fill: none; fill-opacity: 1;"/></g><g class="arrow-line"><path class="connection real" stroke-dasharray="6 6" d="  M280,140 L280,170" style="stroke: rgb(208, 2, 27); stroke-opacity: 1; stroke-width: 1px; fill: none; fill-opacity: 1;"/></g><g class="arrow-line"><path class="connection real" stroke-dasharray="6 6" d="  M390,140 L390,170" style="stroke: rgb(208, 2, 27); stroke-opacity: 1; stroke-width: 1px; fill: none; fill-opacity: 1;"/></g><g class="arrow-line"><path class="connection real" stroke-dasharray="6 6" d="  M500,140 L500,170" style="stroke: rgb(208, 2, 27); stroke-opacity: 1; stroke-width: 1px; fill: none; fill-opacity: 1;"/></g><g class="arrow-line"><path class="connection real" stroke-dasharray="" d="  M500,140 L610,170" style="stroke: rgb(0, 0, 0); stroke-width: 1px; fill: none; fill-opacity: 1;"/></g><g class="arrow-line"><path class="connection real" stroke-dasharray="6 6" d="  M610,140 L610,170" style="stroke: rgb(208, 2, 27); stroke-opacity: 1; stroke-width: 1px; fill: none; fill-opacity: 1;"/></g><g class="arrow-line"><path class="connection real" stroke-dasharray="" d="  M610,140 L619.45,142.58" style="stroke: rgb(0, 0, 0); stroke-width: 1px; fill: none; fill-opacity: 1;"/></g><g/></g><g/><g/><g/></svg>
        <svg xmlns="http://www.w3.org/2000/svg" xmlns:xlink="http://www.w3.org/1999/xlink" width="660" height="222" style="width:660px;height:222px;font-family:Asana-Math, Asana;background:#FFF;"><g><g><g><g><g><g><g><g><g><g transform="matrix(1,0,0,1,47.433319091796875,195.5999755859375)"><path transform="matrix(0.017,0,0,-0.017,0,0)" d="M341 717C317 731 295 737 274 737C163 737 106 555 106 478L106 476L106 434L37 403L37 381L106 385L106 102C106 39 103 32 69 30L23 27L23 -3C123 0 123 0 148 0C173 0 173 0 273 -3L273 27L227 30C193 32 190 39 190 102L190 385L314 385L321 438L190 434L190 519C190 634 203 662 260 662C287 662 305 655 329 634L341 640ZM355 661L411 661C429 661 436 650 436 620L436 102C436 39 433 32 399 30L353 27L353 -3C453 0 453 0 478 0C503 0 503 0 603 -3L603 27L557 30C523 32 520 39 520 102L520 718L511 726C467 709 434 701 355 689ZM901 469C755 469 654 366 654 217C654 76 743 -20 872 -20C1026 -20 1136 87 1136 237C1136 372 1038 469 901 469ZM883 436C975 436 1043 336 1043 200C1043 85 992 13 911 13C813 13 747 109 747 251C747 371 795 436 883 436ZM1446 469C1300 469 1199 366 1199 217C1199 76 1288 -20 1417 -20C1571 -20 1681 87 1681 237C1681 372 1583 469 1446 469ZM1428 436C1520 436 1588 336 1588 200C1588 85 1537 13 1456 13C1358 13 1292 109 1292 251C1292 371 1340 436 1428 436ZM1735 400L1772 400C1812 400 1816 393 1816 327L1816 102C1816 39 1813 32 1779 30L1733 27L1733 -3C1805 -1 1831 0 1856 0C1876 0 1876 0 1999 -3L1999 27L1947 30C1902 33 1900 36 1900 102L1900 274C1900 334 1940 384 1989 384C2019 384 2040 370 2056 338L2077 338L2086 458C2075 465 2057 469 2039 469C2009 469 1977 453 1956 428L1900 362L1900 465L1891 469C1840 448 1788 434 1735 428ZM2606 -125L2606 -75L2106 -75L2106 -125ZM2615 400L2652 400C2692 400 2696 393 2696 327L2696 -176C2696 -239 2693 -246 2659 -248L2613 -251L2613 -281C2713 -278 2713 -278 2738 -278C2763 -278 2763 -278 2863 -281L2863 -251L2817 -248C2783 -246 2780 -239 2780 -176L2780 13C2828 -10 2872 -21 2913 -21C3064 -21 3161 121 3161 242C3161 252 3160 261 3159 271C3157 401 3060 477 2959 477C2892 477 2824 443 2780 369L2780 465L2771 469C2720 448 2668 434 2615 428ZM2918 404C3012 404 3072 338 3072 234C3072 122 3005 39 2915 39C2860 39 2819 57 2780 98L2780 306C2780 337 2827 404 2918 404ZM3228 400L3265 400C3305 400 3309 393 3309 327L3309 102C3309 39 3306 32 3272 30L3226 27L3226 -3C3298 -1 3324 0 3349 0C3369 0 3369 0 3492 -3L3492 27L3440 30C3395 33 3393 36 3393 102L3393 274C3393 334 3433 384 3482 384C3512 384 3533 370 3549 338L3570 338L3579 458C3568 465 3550 469 3532 469C3502 469 3470 453 3449 428L3393 362L3393 465L3384 469C3333 448 3281 434 3228 428ZM3787 465L3778 469C3727 448 3675 434 3622 428L3622 400L3659 400C3699 400 3703 393 3703 327L3703 102C3703 39 3700 32 3666 30L3620 27L3620 -3C3720 0 3720 0 3745 0C3770 0 3770 0 3870 -3L3870 27L3824 30C3790 32 3787 39 3787 102ZM3741 687C3711 687 3685 661 3685 631C3685 602 3711 576 3740 576C3769 576 3796 602 3796 631C3796 659 3769 687 3741 687ZM4288 311C4288 357 4293 398 4302 434C4270 478 4227 497 4182 497C4058 497 3914 361 3914 224C3914 219 3915 215 3915 210C3915 75 4010 -20 4144 -20C4196 -20 4271 -1 4281 14L4302 46L4292 61C4255 41 4223 32 4187 32C4076 32 4003 118 4003 250C4003 357 4053 417 4143 417C4187 417 4235 397 4253 372L4260 311ZM4582 -20C4647 -20 4737 18 4749 36L4769 70L4756 80C4692 42 4669 33 4626 33C4561 33 4507 62 4479 111C4460 144 4453 172 4451 230C4472 227 4502 226 4536 226C4622 226 4731 234 4778 244C4779 258 4780 267 4780 279C4780 394 4706 469 4594 469C4557 469 4512 464 4472 440C4390 392 4358 323 4358 219C4358 25 4493 -20 4582 -20ZM4691 267C4667 264 4616 261 4565 261C4522 261 4479 264 4453 270C4453 317 4457 339 4470 365C4491 409 4534 436 4582 436C4615 436 4641 423 4659 396C4681 363 4688 334 4691 267Z" stroke="rgb(0,0,0)" stroke-opacity="1" stroke-width="8" fill="rgb(0,0,0)" fill-opacity="1"></path></g></g></g></g></g></g></g></g></g></g><g><g><g><g><g><g><g><g><g><g transform="matrix(1,0,0,1,47.433319091796875,61.29998779296875)"><path transform="matrix(0.017,0,0,-0.017,0,0)" d="M399 311C399 357 404 398 413 434C381 478 338 497 293 497C169 497 25 361 25 224C25 219 26 215 26 210C26 75 121 -20 255 -20C307 -20 382 -1 392 14L413 46L403 61C366 41 334 32 298 32C187 32 114 118 114 250C114 357 164 417 254 417C298 417 346 397 364 372L371 311ZM693 -20C758 -20 848 18 860 36L880 70L867 80C803 42 780 33 737 33C672 33 618 62 590 111C571 144 564 172 562 230C583 227 613 226 647 226C733 226 842 234 889 244C890 258 891 267 891 279C891 394 817 469 705 469C668 469 623 464 583 440C501 392 469 323 469 219C469 25 604 -20 693 -20ZM802 267C778 264 727 261 676 261C633 261 590 264 564 270C564 317 568 339 581 365C602 409 645 436 693 436C726 436 752 423 770 396C792 363 799 334 802 267ZM1109 465L1100 469C1049 448 997 434 944 428L944 400L981 400C1021 400 1025 393 1025 327L1025 102C1025 39 1022 32 988 30L942 27L942 -3C1042 0 1042 0 1067 0C1092 0 1092 0 1192 -3L1192 27L1146 30C1112 32 1109 39 1109 102ZM1063 687C1033 687 1007 661 1007 631C1007 602 1033 576 1062 576C1091 576 1118 602 1118 631C1118 659 1091 687 1063 687ZM1234 661L1290 661C1308 661 1315 650 1315 620L1315 102C1315 39 1312 32 1278 30L1232 27L1232 -3C1332 0 1332 0 1357 0C1382 0 1382 0 1482 -3L1482 27L1436 30C1402 32 1399 39 1399 102L1399 718L1390 726C1346 709 1313 701 1234 689ZM2001 -125L2001 -75L1501 -75L1501 -125ZM2010 400L2047 400C2087 400 2091 393 2091 327L2091 -176C2091 -239 2088 -246 2054 -248L2008 -251L2008 -281C2108 -278 2108 -278 2133 -278C2158 -278 2158 -278 2258 -281L2258 -251L2212 -248C2178 -246 2175 -239 2175 -176L2175 13C2223 -10 2267 -21 2308 -21C2459 -21 2556 121 2556 242C2556 252 2555 261 2554 271C2552 401 2455 477 2354 477C2287 477 2219 443 2175 369L2175 465L2166 469C2115 448 2063 434 2010 428ZM2313 404C2407 404 2467 338 2467 234C2467 122 2400 39 2310 39C2255 39 2214 57 2175 98L2175 306C2175 337 2222 404 2313 404ZM2623 400L2660 400C2700 400 2704 393 2704 327L2704 102C2704 39 2701 32 2667 30L2621 27L2621 -3C2693 -1 2719 0 2744 0C2764 0 2764 0 2887 -3L2887 27L2835 30C2790 33 2788 36 2788 102L2788 274C2788 334 2828 384 2877 384C2907 384 2928 370 2944 338L2965 338L2974 458C2963 465 2945 469 2927 469C2897 469 2865 453 2844 428L2788 362L2788 465L2779 469C2728 448 2676 434 2623 428ZM3182 465L3173 469C3122 448 3070 434 3017 428L3017 400L3054 400C3094 400 3098 393 3098 327L3098 102C3098 39 3095 32 3061 30L3015 27L3015 -3C3115 0 3115 0 3140 0C3165 0 3165 0 3265 -3L3265 27L3219 30C3185 32 3182 39 3182 102ZM3136 687C3106 687 3080 661 3080 631C3080 602 3106 576 3135 576C3164 576 3191 602 3191 631C3191 659 3164 687 3136 687ZM3683 311C3683 357 3688 398 3697 434C3665 478 3622 497 3577 497C3453 497 3309 361 3309 224C3309 219 3310 215 3310 210C3310 75 3405 -20 3539 -20C3591 -20 3666 -1 3676 14L3697 46L3687 61C3650 41 3618 32 3582 32C3471 32 3398 118 3398 250C3398 357 3448 417 3538 417C3582 417 3630 397 3648 372L3655 311ZM3977 -20C4042 -20 4132 18 4144 36L4164 70L4151 80C4087 42 4064 33 4021 33C3956 33 3902 62 3874 111C3855 144 3848 172 3846 230C3867 227 3897 226 3931 226C4017 226 4126 234 4173 244C4174 258 4175 267 4175 279C4175 394 4101 469 3989 469C3952 469 3907 464 3867 440C3785 392 3753 323 3753 219C3753 25 3888 -20 3977 -20ZM4086 267C4062 264 4011 261 3960 261C3917 261 3874 264 3848 270C3848 317 3852 339 3865 365C3886 409 3929 436 3977 436C4010 436 4036 423 4054 396C4076 363 4083 334 4086 267Z" stroke="rgb(0,0,0)" stroke-opacity="1" stroke-width="8" fill="rgb(0,0,0)" fill-opacity="1"></path></g></g></g></g></g><g><g transform="matrix(1,0,0,1,124.05001831054688,61.29998779296875)"><path transform="matrix(0.017,0,0,-0.017,0,0)" d="M604 347L604 406L65 406L65 347ZM604 134L604 193L65 193L65 134Z" stroke="rgb(0,0,0)" stroke-opacity="1" stroke-width="8" fill="rgb(0,0,0)" fill-opacity="1"></path></g></g><g><svg x="141.68331909179688" overflow="visible" y="43.13336181640625" height="24" width="8.5"><path d=" M 6.27 1.70 c 0.00 -0.06 -0.04 -0.08 -0.08 -0.08 c -0.03 0.00 -0.06 0.01 -0.08 0.02 c -2.55 1.34 -4.65 3.73 -4.65 9.40 v 0.60 h 1.53 v -0.60 c 0.00 -3.23 0.64 -7.03 3.31 -9.06 c 0.12 -0.09 0.13 -0.19 0.13 -0.28 z   M 1.44 11.64 v 0.72 h 1.53 v -0.72 z" style="fill:rgb(0,0,0);fill-opacity:1;stroke-width:1px;stroke:none;stroke-opacity:1;"></path><path d=" M 6.27 22.30 c 0.00 0.06 -0.04 0.08 -0.08 0.08 c -0.03 0.00 -0.06 -0.01 -0.08 -0.02 c -2.55 -1.34 -4.65 -3.73 -4.65 -9.40 v -0.60 h 1.53 v 0.60 c 0.00 3.23 0.64 7.03 3.31 9.06 c 0.12 0.09 0.13 0.19 0.13 0.28 z" style="fill:rgb(0,0,0);fill-opacity:1;stroke-width:1px;stroke:none;stroke-opacity:1;"></path></svg></g><g><g transform="matrix(1,0,0,1,148.48333740234375,61.29998779296875)"><path transform="matrix(0.017,0,0,-0.017,0,0)" d="M418 -3L418 27L366 30C311 33 301 44 301 96L301 700L60 598L67 548L217 614L217 96C217 44 206 33 152 30L96 27L96 -3C250 0 250 0 261 0C292 0 402 -3 418 -3Z" stroke="rgb(0,0,0)" stroke-opacity="1" stroke-width="8" fill="rgb(0,0,0)" fill-opacity="1"></path></g></g><g><g transform="matrix(1,0,0,1,160.36666870117188,61.29998779296875)"><path transform="matrix(0.017,0,0,-0.017,0,0)" d="M604 241L604 300L364 300L364 538L305 538L305 300L65 300L65 241L305 241L305 0L364 0L364 241Z" stroke="rgb(0,0,0)" stroke-opacity="1" stroke-width="8" fill="rgb(0,0,0)" fill-opacity="1"></path></g></g><g><g><g><g><g transform="matrix(1,0,0,1,175.11666870117188,61.29998779296875)"><path transform="matrix(0.017,0,0,-0.017,0,0)" d="M283 49C203 49 183 94 183 170L183 465L174 469C123 448 71 434 18 428L18 400L55 400C95 400 99 393 99 327L99 159C99 70 104 -12 240 -12C285 -12 325 2 352 27L419 89C419 60 418 44 415 -3C482 0 483 0 498 0C512 0 512 0 581 -3L581 27L540 30C506 32 503 38 503 102L503 465L494 469C443 448 391 434 338 428L338 400L375 400C415 400 419 393 419 327L419 164C419 126 370 49 283 49ZM612 400L649 400C689 400 693 393 693 327L693 -176C693 -239 690 -246 656 -248L610 -251L610 -281C710 -278 710 -278 735 -278C760 -278 760 -278 860 -281L860 -251L814 -248C780 -246 777 -239 777 -176L777 13C825 -10 869 -21 910 -21C1061 -21 1158 121 1158 242C1158 252 1157 261 1156 271C1154 401 1057 477 956 477C889 477 821 443 777 369L777 465L768 469C717 448 665 434 612 428ZM915 404C1009 404 1069 338 1069 234C1069 122 1002 39 912 39C857 39 816 57 777 98L777 306C777 337 824 404 915 404ZM1702 -125L1702 -75L1202 -75L1202 -125ZM1851 718L1842 726C1798 709 1765 701 1686 689L1686 661L1742 661C1760 661 1767 650 1767 620L1767 153C1767 91 1766 64 1759 -6L1775 -12L1815 24C1878 -12 1933 -28 1981 -28C2133 -28 2209 128 2209 262L2209 270C2196 414 2105 485 2016 485C1949 485 1883 446 1851 369ZM1985 404C2069 404 2122 336 2122 229C2122 117 2062 39 1977 39C1925 39 1851 71 1851 93L1851 308C1851 343 1907 404 1985 404ZM2532 469C2386 469 2285 366 2285 217C2285 76 2374 -20 2503 -20C2657 -20 2767 87 2767 237C2767 372 2669 469 2532 469ZM2514 436C2606 436 2674 336 2674 200C2674 85 2623 13 2542 13C2444 13 2378 109 2378 251C2378 371 2426 436 2514 436ZM3081 49C3001 49 2981 94 2981 170L2981 465L2972 469C2921 448 2869 434 2816 428L2816 400L2853 400C2893 400 2897 393 2897 327L2897 159C2897 70 2902 -12 3038 -12C3083 -12 3123 2 3150 27L3217 89C3217 60 3216 44 3213 -3C3280 0 3281 0 3296 0C3310 0 3310 0 3379 -3L3379 27L3338 30C3304 32 3301 38 3301 102L3301 465L3292 469C3241 448 3189 434 3136 428L3136 400L3173 400C3213 400 3217 393 3217 327L3217 164C3217 126 3168 49 3081 49ZM3810 -3C3871 0 3872 0 3889 0C3903 0 3903 0 3972 -3L3972 27L3931 30C3897 32 3894 38 3894 102L3894 295C3894 412 3839 469 3727 469C3690 469 3669 462 3648 444L3572 378L3572 465L3563 469C3512 448 3460 434 3407 428L3407 400L3444 400C3484 400 3488 393 3488 327L3488 102C3488 39 3485 32 3451 30L3406 27L3406 -3C3474 -1 3501 0 3530 0C3559 0 3586 -1 3654 -3L3654 27L3609 30C3575 32 3572 39 3572 102L3572 314C3572 359 3638 408 3699 408C3766 408 3810 358 3810 281ZM4560 -3L4560 27L4514 30C4480 32 4477 39 4477 102L4477 718L4468 726C4424 709 4391 701 4312 689L4312 661L4368 661C4386 661 4393 650 4393 620L4393 437C4365 472 4327 486 4287 486C4164 486 4015 351 4015 229C4015 149 4043 70 4092 30C4126 1 4173 -12 4238 -12C4258 -12 4281 -8 4286 -4L4397 89L4392 -3C4441 -1 4457 0 4469 0C4487 0 4551 -3 4560 -3ZM4393 350L4393 221C4393 156 4391 146 4378 123C4350 76 4301 45 4254 45C4166 45 4103 130 4103 249C4103 358 4157 422 4247 422C4326 422 4393 366 4393 350Z" stroke="rgb(0,0,0)" stroke-opacity="1" stroke-width="8" fill="rgb(0,0,0)" fill-opacity="1"></path></g></g></g></g></g><g><svg x="251.46670532226562" overflow="visible" y="43.13336181640625" height="24" width="8.5"><path d=" M 1.75 1.70 c 0.00 -0.06 0.04 -0.08 0.08 -0.08 c 0.03 0.00 0.06 0.01 0.08 0.02 c 2.55 1.34 4.65 3.73 4.65 9.40 v 0.60 h -1.53 v -0.60 c 0.00 -3.23 -0.64 -7.03 -3.31 -9.06 c -0.12 -0.09 -0.13 -0.19 -0.13 -0.28 z  M 6.58 11.64 v 0.72 h -1.53 v -0.72 z" style="fill:rgb(0,0,0);fill-opacity:1;stroke-width:1px;stroke:none;stroke-opacity:1;"></path><path d=" M 1.75 22.30 c 0.00 0.06 0.04 0.08 0.08 0.08 c 0.03 0.00 0.06 -0.01 0.08 -0.02 c 2.55 -1.34 4.65 -3.73 4.65 -9.40 v -0.60 h -1.53 v 0.60 c 0.00 3.23 -0.64 7.03 -3.31 9.06 c -0.12 0.09 -0.13 0.19 -0.13 0.28 z" style="fill:rgb(0,0,0);fill-opacity:1;stroke-width:1px;stroke:none;stroke-opacity:1;"></path></svg></g><g><g transform="matrix(1,0,0,1,264.5500183105469,61.29998779296875)"><path transform="matrix(0.017,0,0,-0.017,0,0)" d="M124 329C94 329 67 301 67 271C67 241 94 213 123 213C155 213 183 240 183 270C183 301 155 329 124 329Z" stroke="rgb(0,0,0)" stroke-opacity="1" stroke-width="8" fill="rgb(0,0,0)" fill-opacity="1"></path></g></g><g><g><g><g><g transform="matrix(1,0,0,1,272.1833190917969,61.29998779296875)"><path transform="matrix(0.017,0,0,-0.017,0,0)" d="M341 717C317 731 295 737 274 737C163 737 106 555 106 478L106 476L106 434L37 403L37 381L106 385L106 102C106 39 103 32 69 30L23 27L23 -3C123 0 123 0 148 0C173 0 173 0 273 -3L273 27L227 30C193 32 190 39 190 102L190 385L314 385L321 438L190 434L190 519C190 634 203 662 260 662C287 662 305 655 329 634L341 640ZM355 661L411 661C429 661 436 650 436 620L436 102C436 39 433 32 399 30L353 27L353 -3C453 0 453 0 478 0C503 0 503 0 603 -3L603 27L557 30C523 32 520 39 520 102L520 718L511 726C467 709 434 701 355 689ZM901 469C755 469 654 366 654 217C654 76 743 -20 872 -20C1026 -20 1136 87 1136 237C1136 372 1038 469 901 469ZM883 436C975 436 1043 336 1043 200C1043 85 992 13 911 13C813 13 747 109 747 251C747 371 795 436 883 436ZM1446 469C1300 469 1199 366 1199 217C1199 76 1288 -20 1417 -20C1571 -20 1681 87 1681 237C1681 372 1583 469 1446 469ZM1428 436C1520 436 1588 336 1588 200C1588 85 1537 13 1456 13C1358 13 1292 109 1292 251C1292 371 1340 436 1428 436ZM1735 400L1772 400C1812 400 1816 393 1816 327L1816 102C1816 39 1813 32 1779 30L1733 27L1733 -3C1805 -1 1831 0 1856 0C1876 0 1876 0 1999 -3L1999 27L1947 30C1902 33 1900 36 1900 102L1900 274C1900 334 1940 384 1989 384C2019 384 2040 370 2056 338L2077 338L2086 458C2075 465 2057 469 2039 469C2009 469 1977 453 1956 428L1900 362L1900 465L1891 469C1840 448 1788 434 1735 428ZM2606 -125L2606 -75L2106 -75L2106 -125ZM2615 400L2652 400C2692 400 2696 393 2696 327L2696 -176C2696 -239 2693 -246 2659 -248L2613 -251L2613 -281C2713 -278 2713 -278 2738 -278C2763 -278 2763 -278 2863 -281L2863 -251L2817 -248C2783 -246 2780 -239 2780 -176L2780 13C2828 -10 2872 -21 2913 -21C3064 -21 3161 121 3161 242C3161 252 3160 261 3159 271C3157 401 3060 477 2959 477C2892 477 2824 443 2780 369L2780 465L2771 469C2720 448 2668 434 2615 428ZM2918 404C3012 404 3072 338 3072 234C3072 122 3005 39 2915 39C2860 39 2819 57 2780 98L2780 306C2780 337 2827 404 2918 404ZM3228 400L3265 400C3305 400 3309 393 3309 327L3309 102C3309 39 3306 32 3272 30L3226 27L3226 -3C3298 -1 3324 0 3349 0C3369 0 3369 0 3492 -3L3492 27L3440 30C3395 33 3393 36 3393 102L3393 274C3393 334 3433 384 3482 384C3512 384 3533 370 3549 338L3570 338L3579 458C3568 465 3550 469 3532 469C3502 469 3470 453 3449 428L3393 362L3393 465L3384 469C3333 448 3281 434 3228 428ZM3787 465L3778 469C3727 448 3675 434 3622 428L3622 400L3659 400C3699 400 3703 393 3703 327L3703 102C3703 39 3700 32 3666 30L3620 27L3620 -3C3720 0 3720 0 3745 0C3770 0 3770 0 3870 -3L3870 27L3824 30C3790 32 3787 39 3787 102ZM3741 687C3711 687 3685 661 3685 631C3685 602 3711 576 3740 576C3769 576 3796 602 3796 631C3796 659 3769 687 3741 687ZM4288 311C4288 357 4293 398 4302 434C4270 478 4227 497 4182 497C4058 497 3914 361 3914 224C3914 219 3915 215 3915 210C3915 75 4010 -20 4144 -20C4196 -20 4271 -1 4281 14L4302 46L4292 61C4255 41 4223 32 4187 32C4076 32 4003 118 4003 250C4003 357 4053 417 4143 417C4187 417 4235 397 4253 372L4260 311ZM4582 -20C4647 -20 4737 18 4749 36L4769 70L4756 80C4692 42 4669 33 4626 33C4561 33 4507 62 4479 111C4460 144 4453 172 4451 230C4472 227 4502 226 4536 226C4622 226 4731 234 4778 244C4779 258 4780 267 4780 279C4780 394 4706 469 4594 469C4557 469 4512 464 4472 440C4390 392 4358 323 4358 219C4358 25 4493 -20 4582 -20ZM4691 267C4667 264 4616 261 4565 261C4522 261 4479 264 4453 270C4453 317 4457 339 4470 365C4491 409 4534 436 4582 436C4615 436 4641 423 4659 396C4681 363 4688 334 4691 267Z" stroke="rgb(0,0,0)" stroke-opacity="1" stroke-width="8" fill="rgb(0,0,0)" fill-opacity="1"></path></g></g></g></g></g></g></g></g></g></g><g><g><g><g><g><g><g transform="matrix(1,0,0,1,587.3333435058594,125.2633251953125)"><path transform="matrix(0.024480000000000002,0,0,-0.024480000000000002,0,0)" d="M499 116C469 116 442 88 442 58C442 28 469 0 498 0C530 0 558 27 558 58C558 88 530 116 499 116ZM166 116C136 116 109 88 109 58C109 28 136 0 165 0C197 0 225 27 225 58C225 88 197 116 166 116ZM832 116C802 116 775 88 775 58C775 28 802 0 831 0C863 0 891 27 891 58C891 88 863 116 832 116Z" stroke="rgb(0,0,0)" stroke-opacity="1" stroke-width="8" fill="rgb(0,0,0)" fill-opacity="1"></path></g></g></g></g></g></g></g></svg>
</svg>
