<svg xmlns="http://www.w3.org/2000/svg" xmlns:xlink="http://www.w3.org/1999/xlink" x="0" y="0" width="661.433349609375" height="301.4333190917969" style="
        width:661.433349609375px;
        height:301.4333190917969px;
        background: transparent;
        fill: none;
">
        
        
        <svg xmlns="http://www.w3.org/2000/svg" class="role-diagram-draw-area"><g class="shapes-region" style="stroke: black; fill: none;"><g class="arrow-line"><path class="connection real" stroke-dasharray="7.5 6" d="  M207.42,6.35 C247.42,193.35 325.42,223.35 549.42,246.35" style="stroke: rgb(119, 72, 216); stroke-opacity: 1; stroke-width: 2px; fill: none; fill-opacity: 1;"/></g><g class="arrow-line"><path class="connection real" stroke-dasharray="" d="  M274.69,160.09 C304.96,191.45 345.26,210.3 400.42,223.36" style="stroke: rgb(157, 212, 109); stroke-opacity: 1; stroke-width: 4px; fill: none; fill-opacity: 1;"/></g><g class="composite-shape axis2d" style="stroke-width: 1px; stroke: rgb(0, 0, 0);"><path class="real" d=" M108,287.25 L548,287.25 M152,7.35 L152,318.35"/><path d=" M541,282.25 L548,287.25 L541,292.25"/><path d=" M147,14.35 L152,7.35 L157,14.35"/></g><g class="composite-shape"><path class="real" d=" M271.69,160.09 C271.69,158.43 273.03,157.09 274.69,157.09 C276.34,157.09 277.69,158.43 277.69,160.09 C277.69,161.75 276.34,163.09 274.69,163.09 C273.03,163.09 271.69,161.75 271.69,160.09 Z" style="stroke-width: 1px; stroke: rgb(157, 212, 109); stroke-opacity: 1; fill: rgb(157, 212, 109); fill-opacity: 1;"/></g><g class="composite-shape"><path class="real" d=" M397.42,223.36 C397.42,221.7 398.76,220.36 400.42,220.36 C402.07,220.36 403.42,221.7 403.42,223.36 C403.42,225.01 402.07,226.36 400.42,226.36 C398.76,226.36 397.42,225.01 397.42,223.36 Z" style="stroke-width: 1px; stroke: rgb(157, 212, 109); stroke-opacity: 1; fill: rgb(157, 212, 109); fill-opacity: 1;"/></g><g class="arrow-line"><path class="connection real" stroke-dasharray="" d="  M151.69,224.09 C181.96,255.45 222.26,274.3 277.42,287.36" style="stroke: rgb(157, 212, 109); stroke-opacity: 1; stroke-width: 4px; fill: none; fill-opacity: 1;"/></g><g class="composite-shape"><path class="real" d=" M148.69,224.09 C148.69,222.43 150.03,221.09 151.69,221.09 C153.34,221.09 154.69,222.43 154.69,224.09 C154.69,225.75 153.34,227.09 151.69,227.09 C150.03,227.09 148.69,225.75 148.69,224.09 Z" style="stroke-width: 1px; stroke: rgb(157, 212, 109); stroke-opacity: 1; fill: rgb(157, 212, 109); fill-opacity: 1;"/></g><g class="composite-shape"><path class="real" d=" M274.42,287.36 C274.42,285.7 275.76,284.36 277.42,284.36 C279.07,284.36 280.42,285.7 280.42,287.36 C280.42,289.01 279.07,290.36 277.42,290.36 C275.76,290.36 274.42,289.01 274.42,287.36 Z" style="stroke-width: 1px; stroke: rgb(157, 212, 109); stroke-opacity: 1; fill: rgb(157, 212, 109); fill-opacity: 1;"/></g><g class="arrow-line"><path class="connection real" stroke-dasharray="" d="  M274.69,160.09 L154.35,222.71" style="stroke: rgb(157, 212, 109); stroke-opacity: 1; stroke-width: 1px; fill: none; fill-opacity: 1;"/><g stroke="none" fill="rgb(157,212,109)" fill-opacity="1" transform="matrix(0.8870914100040395,-0.4615937936075887,0.4615937936075887,0.8870914100040395,151.68611766979416,224.08991904642102)" style="stroke: none; fill: rgb(157, 212, 109); stroke-width: 1px;"><path d=" M8.93,-4.29 L0,0 L8.93,4.29 Z"/></g></g><g class="arrow-line"><path class="connection real" stroke-dasharray="" d="  M400.42,223.36 L280.08,285.97" style="stroke: rgb(157, 212, 109); stroke-opacity: 1; stroke-width: 1px; fill: none; fill-opacity: 1;"/><g stroke="none" fill="rgb(157,212,109)" fill-opacity="1" transform="matrix(0.8870914100040395,-0.4615937936075887,0.4615937936075887,0.8870914100040395,277.41529134886963,287.35590262857824)" style="stroke: none; fill: rgb(157, 212, 109); stroke-width: 1px;"><path d=" M8.93,-4.29 L0,0 L8.93,4.29 Z"/></g></g><g/></g><g/><g/><g/></svg>
        <svg xmlns="http://www.w3.org/2000/svg" xmlns:xlink="http://www.w3.org/1999/xlink" width="660" height="300" style="width:660px;height:300px;font-family:Asana-Math, Asana;background:transparent;"><g><g><g><g><g><g><g transform="matrix(1,0,0,1,80.7166748046875,27.533340454101562)"><path transform="matrix(0.017,0,0,-0.017,0,0)" d="M-7 -180C-8 -187 -8 -193 -8 -198C-8 -241 29 -276 74 -276C180 -276 290 -152 349 33L490 473L479 482C450 471 427 465 405 463L370 331C358 284 323 211 290 162C255 111 206 67 184 67C172 67 163 90 164 115L180 322C182 353 184 391 184 419C184 464 177 482 160 482C147 482 133 475 85 442L3 386L14 368L64 398C69 401 80 410 89 410C103 410 111 391 111 358C111 357 111 351 110 343L93 100L92 60C92 18 110 -11 135 -11C172 -11 256 74 331 187L282 16C231 -161 181 -234 111 -234C76 -234 49 -207 49 -172C49 -167 50 -159 51 -150L41 -146Z" stroke="rgb(0,0,0)" stroke-opacity="1" stroke-width="8" fill="rgb(0,0,0)" fill-opacity="1"></path></g></g></g></g></g><g><g transform="matrix(1,0,0,1,89.20001220703125,27.683334350585938)"><path transform="matrix(0.015,0,0,-0.015,0,0)" d="M685 400L770 400L770 124C770 1 863 -11 899 -11C970 -11 998 60 998 124L998 181L973 181L973 126C973 52 943 14 906 14C839 14 839 105 839 122L839 400L982 400L982 431L839 431L839 615L814 615C813 533 783 426 685 422ZM1082 214C1082 85 1186 -11 1303 -11C1424 -11 1525 87 1525 214C1525 342 1425 448 1304 448C1179 448 1082 339 1082 214ZM1165 222C1165 261 1165 315 1189 359C1216 405 1263 426 1303 426C1347 426 1390 404 1416 361C1442 318 1442 260 1442 222C1442 186 1442 132 1420 88C1398 43 1354 14 1304 14C1261 14 1217 35 1190 81C1165 125 1165 186 1165 222ZM1582 0C1615 1 1662 3 1691 3C1721 3 1761 2 1801 0L1801 31C1734 31 1723 31 1723 76L1723 179L1787 234C1864 128 1906 72 1906 54C1906 35 1889 31 1870 31L1870 0C1898 1 1957 3 1978 3C2007 3 2036 2 2065 0L2065 31C2028 31 2006 31 1968 84L1841 263C1840 265 1835 271 1835 274C1835 278 1906 338 1916 346C1979 397 2021 399 2042 400L2042 431C2013 428 2000 428 1972 428C1936 428 1874 430 1860 431L1860 400C1879 399 1889 388 1889 375C1889 355 1875 343 1867 336L1726 214L1726 694L1582 683L1582 652C1652 652 1660 645 1660 596L1660 76C1660 31 1649 31 1582 31ZM2081 220C2081 86 2186 -11 2301 -11C2423 -11 2468 100 2468 119C2468 129 2460 131 2455 131C2446 131 2444 125 2442 117C2407 14 2317 14 2307 14C2257 14 2217 44 2194 81C2164 129 2164 195 2164 231L2443 231C2465 231 2468 231 2468 252C2468 351 2414 448 2289 448C2173 448 2081 345 2081 220ZM2165 252C2171 401 2255 426 2289 426C2392 426 2402 291 2402 252ZM2529 0C2564 1 2615 3 2642 3C2668 3 2720 1 2754 0L2754 31C2687 31 2676 31 2676 76L2676 260C2676 364 2747 420 2811 420C2874 420 2885 366 2885 309L2885 76C2885 31 2874 31 2807 31L2807 0C2842 1 2893 3 2920 3C2946 3 2998 1 3032 0L3032 31C2980 31 2955 31 2954 61L2954 252C2954 338 2954 369 2923 405C2909 422 2876 442 2818 442C2745 442 2698 399 2670 337L2670 442L2529 431L2529 400C2599 400 2607 393 2607 344L2607 76C2607 31 2596 31 2529 31Z" stroke="rgb(0,0,0)" stroke-opacity="1" stroke-width="8" fill="rgb(0,0,0)" fill-opacity="1"></path></g></g></g></g><g><g><g><g><g><g><g transform="matrix(1,0,0,1,558.7166900634766,286.5333251953125)"><path transform="matrix(0.017,0,0,-0.017,0,0)" d="M9 1C24 -7 40 -11 52 -11C85 -11 124 18 155 65L231 182L242 113C255 28 278 -11 314 -11C336 -11 368 6 400 35L449 79L440 98C404 68 379 53 363 53C348 53 335 63 325 83C316 102 305 139 300 168L282 269L317 318C364 383 391 406 422 406C438 406 450 398 455 383L469 387L484 472C472 479 463 482 454 482C414 482 374 446 312 354L275 299L269 347C257 446 230 482 171 482C145 482 123 474 114 461L56 378L73 368C103 402 123 416 142 416C175 416 197 375 214 277L225 215L185 153C142 86 108 54 80 54C65 54 54 58 52 63L41 91L21 88C21 53 13 27 9 1Z" stroke="rgb(0,0,0)" stroke-opacity="1" stroke-width="8" fill="rgb(0,0,0)" fill-opacity="1"></path></g></g></g></g></g><g><g transform="matrix(1,0,0,1,567.2000274658203,286.683349609375)"><path transform="matrix(0.015,0,0,-0.015,0,0)" d="M685 400L770 400L770 124C770 1 863 -11 899 -11C970 -11 998 60 998 124L998 181L973 181L973 126C973 52 943 14 906 14C839 14 839 105 839 122L839 400L982 400L982 431L839 431L839 615L814 615C813 533 783 426 685 422ZM1082 214C1082 85 1186 -11 1303 -11C1424 -11 1525 87 1525 214C1525 342 1425 448 1304 448C1179 448 1082 339 1082 214ZM1165 222C1165 261 1165 315 1189 359C1216 405 1263 426 1303 426C1347 426 1390 404 1416 361C1442 318 1442 260 1442 222C1442 186 1442 132 1420 88C1398 43 1354 14 1304 14C1261 14 1217 35 1190 81C1165 125 1165 186 1165 222ZM1582 0C1615 1 1662 3 1691 3C1721 3 1761 2 1801 0L1801 31C1734 31 1723 31 1723 76L1723 179L1787 234C1864 128 1906 72 1906 54C1906 35 1889 31 1870 31L1870 0C1898 1 1957 3 1978 3C2007 3 2036 2 2065 0L2065 31C2028 31 2006 31 1968 84L1841 263C1840 265 1835 271 1835 274C1835 278 1906 338 1916 346C1979 397 2021 399 2042 400L2042 431C2013 428 2000 428 1972 428C1936 428 1874 430 1860 431L1860 400C1879 399 1889 388 1889 375C1889 355 1875 343 1867 336L1726 214L1726 694L1582 683L1582 652C1652 652 1660 645 1660 596L1660 76C1660 31 1649 31 1582 31ZM2081 220C2081 86 2186 -11 2301 -11C2423 -11 2468 100 2468 119C2468 129 2460 131 2455 131C2446 131 2444 125 2442 117C2407 14 2317 14 2307 14C2257 14 2217 44 2194 81C2164 129 2164 195 2164 231L2443 231C2465 231 2468 231 2468 252C2468 351 2414 448 2289 448C2173 448 2081 345 2081 220ZM2165 252C2171 401 2255 426 2289 426C2392 426 2402 291 2402 252ZM2529 0C2564 1 2615 3 2642 3C2668 3 2720 1 2754 0L2754 31C2687 31 2676 31 2676 76L2676 260C2676 364 2747 420 2811 420C2874 420 2885 366 2885 309L2885 76C2885 31 2874 31 2807 31L2807 0C2842 1 2893 3 2920 3C2946 3 2998 1 3032 0L3032 31C2980 31 2955 31 2954 61L2954 252C2954 338 2954 369 2923 405C2909 422 2876 442 2818 442C2745 442 2698 399 2670 337L2670 442L2529 431L2529 400C2599 400 2607 393 2607 344L2607 76C2607 31 2596 31 2529 31Z" stroke="rgb(0,0,0)" stroke-opacity="1" stroke-width="8" fill="rgb(0,0,0)" fill-opacity="1"></path></g></g></g></g><g><g><g><g><g><g><svg x="278.46669006347656" overflow="visible" y="105.83331298828125" height="52" width="7.649993896484375"><path d=" M 5.65 1.53 c 0.00 -0.05 -0.04 -0.07 -0.08 -0.07 c -0.03 0.00 -0.05 0.01 -0.08 0.02 c -2.29 1.20 -4.18 3.36 -4.18 8.46 v 0.54 h 1.38 v -0.54 c 0.00 -2.91 0.58 -6.32 2.98 -8.15 c 0.11 -0.08 0.11 -0.17 0.11 -0.26 z   M 1.29 10.48 v 31.05 h 1.38 v -31.05 z" style="fill:rgb(0,0,0);fill-opacity:1;stroke-width:1px;stroke:none;stroke-opacity:1;"></path><path d=" M 5.65 50.47 c 0.00 0.05 -0.04 0.07 -0.08 0.07 c -0.03 0.00 -0.05 -0.01 -0.08 -0.02 c -2.29 -1.20 -4.18 -3.36 -4.18 -8.46 v -0.54 h 1.38 v 0.54 c 0.00 2.91 0.58 6.32 2.98 8.15 c 0.11 0.08 0.11 0.17 0.11 0.26 z" style="fill:rgb(0,0,0);fill-opacity:1;stroke-width:1px;stroke:none;stroke-opacity:1;"></path></svg></g><g><g><g><g><g transform="matrix(1,0,0,1,297.00001525878906,121.983349609375)"><path transform="matrix(0.015300000000000001,0,0,-0.015300000000000001,0,0)" d="M349 664L352 692L238 689C222 689 204 689 161 690L97 692L94 664L141 662C165 661 176 653 176 635L81 55C77 37 65 30 21 23L16 -3L57 -2C88 -1 150 0 170 0C170 0 467 -1 467 -1C467 -1 500 0 500 0C499 25 510 103 523 165L492 165L475 103C466 71 457 54 448 49C435 44 371 39 304 39C255 39 228 40 162 46C165 64 256 605 256 613C263 651 270 658 307 661Z" stroke="rgb(0,0,0)" stroke-opacity="1" stroke-width="8" fill="rgb(0,0,0)" fill-opacity="1"></path></g></g></g></g><g><g><g><g><g><g><g transform="matrix(1,0,0,1,301.4166717529297,150.71668701171876)"><path transform="matrix(0.015300000000000001,0,0,-0.015300000000000001,0,0)" d="M176 -11C232 -11 347 62 390 125C431 186 465 296 465 371C465 438 442 482 406 482C364 482 311 456 259 409C218 374 198 348 162 289L186 408C189 425 191 440 191 452C191 471 183 482 169 482C148 482 110 461 36 408L8 388L15 368L47 389C75 407 86 412 95 412C105 412 112 403 112 389C112 381 110 361 108 351L50 8C40 -52 21 -143 1 -233L-7 -270L0 -276C21 -269 41 -264 73 -259L115 3C136 -4 158 -11 176 -11ZM143 165C165 293 272 424 355 424C381 424 393 402 393 356C393 275 353 156 300 80C280 51 248 36 207 36C176 36 151 43 125 59Z" stroke="rgb(0,0,0)" stroke-opacity="1" stroke-width="8" fill="rgb(0,0,0)" fill-opacity="1"></path></g></g><g><g><g><g><g transform="matrix(1,0,0,1,309.5166778564453,153.19333740234376)"><path transform="matrix(0.01071,0,0,-0.01071,0,0)" d="M492 473L485 482L417 465L407 414C392 336 367 268 336 221C277 130 199 59 159 59C151 59 146 68 146 85C146 99 148 112 153 137L210 408C213 424 215 438 215 451C215 470 206 482 192 482C172 482 134 461 60 408L32 388L39 368L71 389C99 407 110 412 119 412C128 412 136 403 136 392C136 388 135 378 134 374L71 77C69 68 67 44 67 30C67 7 82 -11 102 -11C165 -11 286 101 370 239L333 97C326 73 322 46 322 31C322 6 333 -9 352 -9C378 -9 414 12 512 85L502 103L476 86C452 70 426 59 415 59C407 59 402 66 402 76C402 112 477 416 492 473Z" stroke="rgb(0,0,0)" stroke-opacity="1" stroke-width="8" fill="rgb(0,0,0)" fill-opacity="1"></path></g></g></g></g></g></g></g><svg x="286.1166534423828" overflow="visible" y="133.20001220703125" height="15.300003051757812" width="30.266677856445312"><polygon points="0.32,11.23 4.31,9.10 8.62,18.24 14.73,0.00 30.27,0.00 30.27,0.95 15.40,0.95 8.26,22.30 2.79,10.84 0.57,11.67" style="fill:rgb(0,0,0);fill-opacity:1;stroke-width:1px;stroke:none;stroke-opacity:1;"></polygon></svg></g></g></g><line style="fill:none;stroke-width:0.716667px;stroke:rgb(0, 0, 0);" x1="286.1166534423828" y1="128.2666473388672" x2="316.3833312988281" y2="128.2666473388672"></line></g><g><g transform="matrix(1,0,0,1,317.9166717529297,132.34998779296876)"><path transform="matrix(0.015300000000000001,0,0,-0.015300000000000001,0,0)" d="M204 123C177 114 159 108 106 93C99 17 74 -48 16 -144L30 -155L71 -136C152 -31 190 32 218 109Z" stroke="rgb(0,0,0)" stroke-opacity="1" stroke-width="8" fill="rgb(0,0,0)" fill-opacity="1"></path></g></g><g><g transform="matrix(1,0,0,1,324.8000030517578,132.34998779296876)"><path transform="matrix(0.015300000000000001,0,0,-0.015300000000000001,0,0)" d="M349 664L352 692L238 689C222 689 204 689 161 690L97 692L94 664L141 662C165 661 176 653 176 635L81 55C77 37 65 30 21 23L16 -3L57 -2C88 -1 150 0 170 0C170 0 467 -1 467 -1C467 -1 500 0 500 0C499 25 510 103 523 165L492 165L475 103C466 71 457 54 448 49C435 44 371 39 304 39C255 39 228 40 162 46C165 64 256 605 256 613C263 651 270 658 307 661Z" stroke="rgb(0,0,0)" stroke-opacity="1" stroke-width="8" fill="rgb(0,0,0)" fill-opacity="1"></path></g></g><g><g><g><g><g transform="matrix(1,0,0,1,348.5833282470703,132.34998779296876)"><path transform="matrix(0.015300000000000001,0,0,-0.015300000000000001,0,0)" d="M176 -11C232 -11 347 62 390 125C431 186 465 296 465 371C465 438 442 482 406 482C364 482 311 456 259 409C218 374 198 348 162 289L186 408C189 425 191 440 191 452C191 471 183 482 169 482C148 482 110 461 36 408L8 388L15 368L47 389C75 407 86 412 95 412C105 412 112 403 112 389C112 381 110 361 108 351L50 8C40 -52 21 -143 1 -233L-7 -270L0 -276C21 -269 41 -264 73 -259L115 3C136 -4 158 -11 176 -11ZM143 165C165 293 272 424 355 424C381 424 393 402 393 356C393 275 353 156 300 80C280 51 248 36 207 36C176 36 151 43 125 59Z" stroke="rgb(0,0,0)" stroke-opacity="1" stroke-width="8" fill="rgb(0,0,0)" fill-opacity="1"></path></g></g><g><g><g><g><g transform="matrix(1,0,0,1,356.68333435058594,134.82666870117188)"><path transform="matrix(0.01071,0,0,-0.01071,0,0)" d="M492 473L485 482L417 465L407 414C392 336 367 268 336 221C277 130 199 59 159 59C151 59 146 68 146 85C146 99 148 112 153 137L210 408C213 424 215 438 215 451C215 470 206 482 192 482C172 482 134 461 60 408L32 388L39 368L71 389C99 407 110 412 119 412C128 412 136 403 136 392C136 388 135 378 134 374L71 77C69 68 67 44 67 30C67 7 82 -11 102 -11C165 -11 286 101 370 239L333 97C326 73 322 46 322 31C322 6 333 -9 352 -9C378 -9 414 12 512 85L502 103L476 86C452 70 426 59 415 59C407 59 402 66 402 76C402 112 477 416 492 473Z" stroke="rgb(0,0,0)" stroke-opacity="1" stroke-width="8" fill="rgb(0,0,0)" fill-opacity="1"></path></g></g></g></g></g></g></g><svg x="333.28334045410156" overflow="visible" y="114.83331298828125" height="15.300003051757812" width="30.26666259765625"><polygon points="0.32,11.23 4.31,9.10 8.62,18.24 14.73,0.00 30.27,0.00 30.27,0.95 15.40,0.95 8.26,22.30 2.79,10.84 0.57,11.67" style="fill:rgb(0,0,0);fill-opacity:1;stroke-width:1px;stroke:none;stroke-opacity:1;"></polygon></svg></g><g><svg x="362.0166778564453" overflow="visible" y="105.83331298828125" height="52" width="7.649993896484375"><path d=" M 1.57 1.53 c 0.00 -0.05 0.04 -0.07 0.08 -0.07 c 0.03 0.00 0.05 0.01 0.08 0.02 c 2.29 1.20 4.18 3.36 4.18 8.46 v 0.54 h -1.38 v -0.54 c 0.00 -2.91 -0.58 -6.32 -2.98 -8.15 c -0.11 -0.08 -0.11 -0.17 -0.11 -0.26 z  M 5.93 10.48 v 31.05 h -1.38 v -31.05 z" style="fill:rgb(0,0,0);fill-opacity:1;stroke-width:1px;stroke:none;stroke-opacity:1;"></path><path d=" M 1.57 50.47 c 0.00 0.05 0.04 0.07 0.08 0.07 c 0.03 0.00 0.05 -0.01 0.08 -0.02 c 2.29 -1.20 4.18 -3.36 4.18 -8.46 v -0.54 h -1.38 v 0.54 c 0.00 2.91 -0.58 6.32 -2.98 8.15 c -0.11 0.08 -0.11 0.17 -0.11 0.26 z" style="fill:rgb(0,0,0);fill-opacity:1;stroke-width:1px;stroke:none;stroke-opacity:1;"></path></svg></g></g></g></g></g></g><g><g><g><g><g><g><svg x="404.2000274658203" overflow="visible" y="169.10000610351562" height="52" width="7.649993896484375"><path d=" M 5.65 1.53 c 0.00 -0.05 -0.04 -0.07 -0.08 -0.07 c -0.03 0.00 -0.05 0.01 -0.08 0.02 c -2.29 1.20 -4.18 3.36 -4.18 8.46 v 0.54 h 1.38 v -0.54 c 0.00 -2.91 0.58 -6.32 2.98 -8.15 c 0.11 -0.08 0.11 -0.17 0.11 -0.26 z   M 1.29 10.48 v 31.05 h 1.38 v -31.05 z" style="fill:rgb(0,0,0);fill-opacity:1;stroke-width:1px;stroke:none;stroke-opacity:1;"></path><path d=" M 5.65 50.47 c 0.00 0.05 -0.04 0.07 -0.08 0.07 c -0.03 0.00 -0.05 -0.01 -0.08 -0.02 c -2.29 -1.20 -4.18 -3.36 -4.18 -8.46 v -0.54 h 1.38 v 0.54 c 0.00 2.91 0.58 6.32 2.98 8.15 c 0.11 0.08 0.11 0.17 0.11 0.26 z" style="fill:rgb(0,0,0);fill-opacity:1;stroke-width:1px;stroke:none;stroke-opacity:1;"></path></svg></g><g><g><g><g><g transform="matrix(1,0,0,1,421.25001525878906,185.25001220703126)"><path transform="matrix(0.015300000000000001,0,0,-0.015300000000000001,0,0)" d="M349 664L352 692L238 689C222 689 204 689 161 690L97 692L94 664L141 662C165 661 176 653 176 635L81 55C77 37 65 30 21 23L16 -3L57 -2C88 -1 150 0 170 0C170 0 467 -1 467 -1C467 -1 500 0 500 0C499 25 510 103 523 165L492 165L475 103C466 71 457 54 448 49C435 44 371 39 304 39C255 39 228 40 162 46C165 64 256 605 256 613C263 651 270 658 307 661Z" stroke="rgb(0,0,0)" stroke-opacity="1" stroke-width="8" fill="rgb(0,0,0)" fill-opacity="1"></path></g></g></g></g><g><g><g><g><g><g><g transform="matrix(1,0,0,1,427.15000915527344,213.983349609375)"><path transform="matrix(0.015300000000000001,0,0,-0.015300000000000001,0,0)" d="M176 -11C232 -11 347 62 390 125C431 186 465 296 465 371C465 438 442 482 406 482C364 482 311 456 259 409C218 374 198 348 162 289L186 408C189 425 191 440 191 452C191 471 183 482 169 482C148 482 110 461 36 408L8 388L15 368L47 389C75 407 86 412 95 412C105 412 112 403 112 389C112 381 110 361 108 351L50 8C40 -52 21 -143 1 -233L-7 -270L0 -276C21 -269 41 -264 73 -259L115 3C136 -4 158 -11 176 -11ZM143 165C165 293 272 424 355 424C381 424 393 402 393 356C393 275 353 156 300 80C280 51 248 36 207 36C176 36 151 43 125 59Z" stroke="rgb(0,0,0)" stroke-opacity="1" stroke-width="8" fill="rgb(0,0,0)" fill-opacity="1"></path></g></g><g><g><g><g><g transform="matrix(1,0,0,1,435.25001525878906,216.46)"><path transform="matrix(0.01071,0,0,-0.01071,0,0)" d="M251 722L239 733C187 707 151 698 79 691L75 670L123 670C147 670 157 663 157 648C157 645 157 640 154 622C143 567 70 182 55 132C42 82 36 52 36 31C36 6 47 -9 66 -9C92 -9 128 12 226 85L216 103L190 86C161 67 139 56 129 56C122 56 116 66 116 76C116 82 117 89 120 104Z" stroke="rgb(0,0,0)" stroke-opacity="1" stroke-width="8" fill="rgb(0,0,0)" fill-opacity="1"></path></g></g></g></g></g></g></g><svg x="411.84999084472656" overflow="visible" y="196.4666748046875" height="15.300003051757812" width="27.283340454101562"><polygon points="0.32,11.23 4.31,9.10 8.62,18.24 14.73,0.00 27.28,0.00 27.28,0.95 15.40,0.95 8.26,22.30 2.79,10.84 0.57,11.67" style="fill:rgb(0,0,0);fill-opacity:1;stroke-width:1px;stroke:none;stroke-opacity:1;"></polygon></svg></g></g></g><line style="fill:none;stroke-width:0.716667px;stroke:rgb(0, 0, 0);" x1="411.84999084472656" y1="191.5333251953125" x2="439.1333312988281" y2="191.5333251953125"></line></g><g><g transform="matrix(1,0,0,1,440.6666717529297,195.616650390625)"><path transform="matrix(0.015300000000000001,0,0,-0.015300000000000001,0,0)" d="M204 123C177 114 159 108 106 93C99 17 74 -48 16 -144L30 -155L71 -136C152 -31 190 32 218 109Z" stroke="rgb(0,0,0)" stroke-opacity="1" stroke-width="8" fill="rgb(0,0,0)" fill-opacity="1"></path></g></g><g><g transform="matrix(1,0,0,1,447.5500030517578,195.616650390625)"><path transform="matrix(0.015300000000000001,0,0,-0.015300000000000001,0,0)" d="M349 664L352 692L238 689C222 689 204 689 161 690L97 692L94 664L141 662C165 661 176 653 176 635L81 55C77 37 65 30 21 23L16 -3L57 -2C88 -1 150 0 170 0C170 0 467 -1 467 -1C467 -1 500 0 500 0C499 25 510 103 523 165L492 165L475 103C466 71 457 54 448 49C435 44 371 39 304 39C255 39 228 40 162 46C165 64 256 605 256 613C263 651 270 658 307 661Z" stroke="rgb(0,0,0)" stroke-opacity="1" stroke-width="8" fill="rgb(0,0,0)" fill-opacity="1"></path></g></g><g><g><g><g><g transform="matrix(1,0,0,1,471.3333282470703,195.616650390625)"><path transform="matrix(0.015300000000000001,0,0,-0.015300000000000001,0,0)" d="M176 -11C232 -11 347 62 390 125C431 186 465 296 465 371C465 438 442 482 406 482C364 482 311 456 259 409C218 374 198 348 162 289L186 408C189 425 191 440 191 452C191 471 183 482 169 482C148 482 110 461 36 408L8 388L15 368L47 389C75 407 86 412 95 412C105 412 112 403 112 389C112 381 110 361 108 351L50 8C40 -52 21 -143 1 -233L-7 -270L0 -276C21 -269 41 -264 73 -259L115 3C136 -4 158 -11 176 -11ZM143 165C165 293 272 424 355 424C381 424 393 402 393 356C393 275 353 156 300 80C280 51 248 36 207 36C176 36 151 43 125 59Z" stroke="rgb(0,0,0)" stroke-opacity="1" stroke-width="8" fill="rgb(0,0,0)" fill-opacity="1"></path></g></g><g><g><g><g><g transform="matrix(1,0,0,1,479.43333435058594,198.09333129882813)"><path transform="matrix(0.01071,0,0,-0.01071,0,0)" d="M251 722L239 733C187 707 151 698 79 691L75 670L123 670C147 670 157 663 157 648C157 645 157 640 154 622C143 567 70 182 55 132C42 82 36 52 36 31C36 6 47 -9 66 -9C92 -9 128 12 226 85L216 103L190 86C161 67 139 56 129 56C122 56 116 66 116 76C116 82 117 89 120 104Z" stroke="rgb(0,0,0)" stroke-opacity="1" stroke-width="8" fill="rgb(0,0,0)" fill-opacity="1"></path></g></g></g></g></g></g></g><svg x="456.03334045410156" overflow="visible" y="178.10000610351562" height="15.29998779296875" width="27.283340454101562"><polygon points="0.32,11.23 4.31,9.10 8.62,18.24 14.73,0.00 27.28,0.00 27.28,0.95 15.40,0.95 8.26,22.30 2.79,10.84 0.57,11.67" style="fill:rgb(0,0,0);fill-opacity:1;stroke-width:1px;stroke:none;stroke-opacity:1;"></polygon></svg></g><g><svg x="481.78334045410156" overflow="visible" y="169.10000610351562" height="52" width="7.649993896484375"><path d=" M 1.57 1.53 c 0.00 -0.05 0.04 -0.07 0.08 -0.07 c 0.03 0.00 0.05 0.01 0.08 0.02 c 2.29 1.20 4.18 3.36 4.18 8.46 v 0.54 h -1.38 v -0.54 c 0.00 -2.91 -0.58 -6.32 -2.98 -8.15 c -0.11 -0.08 -0.11 -0.17 -0.11 -0.26 z  M 5.93 10.48 v 31.05 h -1.38 v -31.05 z" style="fill:rgb(0,0,0);fill-opacity:1;stroke-width:1px;stroke:none;stroke-opacity:1;"></path><path d=" M 1.57 50.47 c 0.00 0.05 0.04 0.07 0.08 0.07 c 0.03 0.00 0.05 -0.01 0.08 -0.02 c 2.29 -1.20 4.18 -3.36 4.18 -8.46 v -0.54 h -1.38 v 0.54 c 0.00 2.91 -0.58 6.32 -2.98 8.15 c -0.11 0.08 -0.11 0.17 -0.11 0.26 z" style="fill:rgb(0,0,0);fill-opacity:1;stroke-width:1px;stroke:none;stroke-opacity:1;"></path></svg></g></g></g></g></g></g></svg>
</svg>
